<?xml version="1.0" encoding="UTF-8"?>
<svg id="Layer_1" xmlns="http://www.w3.org/2000/svg" version="1.1" viewBox="0 0 1551 797">
  <!-- Generator: Adobe Illustrator 29.0.0, SVG Export Plug-In . SVG Version: 2.1.0 Build 186)  -->
  <defs>
    <style>
      .st0 {
        fill: #000;
      }
    </style>
  </defs>
  <path class="st0" d="M1489.7,332.79c-69.54,25.78-139.04,51.64-208.65,77.21-5.16,1.9-6.17,4.65-6.16,9.59.16,41.68.09,83.34.09,125,0,74.25.02,148.48,0,222.71,0,1.22-.02,2.4-.05,3.52h220.77c.03-143.09.02-286.15.02-429.24v-10.86c-2.85.97-4.45,1.46-6.02,2.06Z"/>
  <path class="st0" d="M1203.29,344.84c-40.29-3.79-80.42-9.4-120.74-12.25-73.38-5.16-146.32-1.4-218.1,16.16-68.45,16.75-130.83,45.93-180.5,96.75-87.28,89.34-116.33,198.14-101.81,320.23.19,1.57.41,3.14.67,4.69h244.3c-10.12-11.21-15.69-25.68-18.28-41.72-7.31-45.36-1.28-87.8,31.35-122.9,25.82-27.77,58.83-42.6,95.75-48.46,18.23-2.9,36.86-3.38,55.93-5.02v218.1h220.89c0-138.14-.05-276.32.16-414.47.02-7.43-1.64-10.37-9.62-11.12Z"/>
  <path class="st0" d="M526.57,527.73c-20.52-76.25-64.33-133.73-136.49-167.84-49.29-23.28-101.74-31.29-155.82-29.58-68.19,2.16-134.23,16.57-199.52,35.23-5.71,1.64-6.9,4.43-6.88,9.73.12,65.17.07,130.37.12,195.54,0,2.38.48,4.76.74,7.09,25.42-6.14,49.77-12.71,74.44-17.83,42-8.71,84.32-14.8,127.28-7.66,36.87,6.12,66.12,23.9,80.54,59.55,6.45,15.95,11.21,33.6,11.93,50.67,1.54,36.01,1.35,72.11,1.35,108.19h220.48c.07-32.2.21-64.4-.1-96.6-.48-49.48-5.14-98.51-18.06-146.49Z"/>
  <path class="st0" d="M1178.6,145.9c-47.05,42.19-93.57,83.91-140.54,126.03-30.62-27.52-60.88-54.71-91.76-82.46-30.01,27.34-59.85,54.52-90.52,82.47-47.2-41.94-94.22-83.72-141.84-126.04,47.58-43.16,94.48-85.7,141.85-128.67,30.18,27.5,60.02,54.7,90.49,82.47,30.59-27.49,60.82-54.65,91.77-82.45,46.88,42.92,93.55,85.63,140.56,128.66Z"/>
  <path class="st0" d="M1391.81,272.34c-47.13-42.27-93.41-83.79-140.56-126.07,47-43.04,93.57-85.69,140.56-128.72,46.48,42.96,92.54,85.55,139.23,128.7-46.5,42.11-92.54,83.8-139.24,126.08Z"/>
</svg>